<svg width="200" height="200" viewBox="0 0 200 200" xmlns="http://www.w3.org/2000/svg">
  <!-- Base helmet -->
  <path d="M100 30c-35 0-63.5 28.5-63.5 63.5v45h127v-45C163.5 58.5 135 30 100 30z" fill="#2A2A2A"/>
  
  <!-- Helmet shine -->
  <path d="M100 30c-5 0-9.8.7-14.3 2l-4.3 76.3h37.2l-4.3-76.3c-4.5-1.3-9.3-2-14.3-2z" fill="#444444"/>
  
  <!-- Visor frame -->
  <path d="M60 95c0-5.5 4.5-10 10-10h60c5.5 0 10 4.5 10 10v20c0 5.5-4.5 10-10 10H70c-5.5 0-10-4.5-10-10V95z" fill="#333333"/>
  
  <!-- Visor glass -->
  <path d="M65 98c0-2.8 2.2-5 5-5h60c2.8 0 5 2.2 5 5v14c0 2.8-2.2 5-5 5H70c-2.8 0-5-2.2-5-5V98z" fill="#0066cc"/>
  
  <!-- Side attachments -->
  <circle cx="45" cy="100" r="8" fill="#444444"/>
  <circle cx="155" cy="100" r="8" fill="#444444"/>
  
  <!-- Helmet details -->
  <path d="M85 40c-2.8 0-5 2.2-5 5v10c0 2.8 2.2 5 5 5h30c2.8 0 5-2.2 5-5V45c0-2.8-2.2-5-5-5H85z" fill="#0066cc"/>
</svg> 